<?xml version="1.0" encoding="utf-8"?>
<svg version="1.1" xmlns:xlink="http://www.w3.org/1999/xlink" width="64px" height="61px" xmlns="http://www.w3.org/2000/svg">
  <g transform="matrix(1 0 0 1 -30 -20 )">
    <path d="M 62 20  C 79.92 20  94 33.42  94 50.5  C 94 67.58  79.92 81  62 81  C 44.08 81  30 67.58  30 50.5  C 30 33.42  44.08 20  62 20  Z " fill-rule="nonzero" fill="#ffffff" stroke="none" />
    <path d="M 62 20.5  C 79.64 20.5  93.5 33.7  93.5 50.5  C 93.5 67.30000000000001  79.64 80.5  62 80.5  C 44.36 80.5  30.5 67.30000000000001  30.5 50.5  C 30.5 33.7  44.36 20.5  62 20.5  Z " stroke-width="1" stroke="#797979" fill="none" />
  </g>
</svg>