<?xml version="1.0" encoding="utf-8"?>
<svg version="1.1" xmlns:xlink="http://www.w3.org/1999/xlink" width="74px" height="74px" xmlns="http://www.w3.org/2000/svg">
  <g transform="matrix(1 0 0 1 -339 -508 )">
    <path d="M 70.22448979591837 14.79036458333333  C 71.3497398959584 15.27213541666667  72.22328931572629 15.962673611111105  72.8451380552221 16.861979166666668  C 74.02961184473789 18.692708333333332  74.29611844737896 20.764322916666668  73.64465786314526 23.076822916666668  L 61.429771908763506 66.72526041666667  C 60.86714685874351 68.78081597222223  59.73449379751901 70.50716145833333  58.031812725090035 71.904296875  C 56.32913165266107 73.30143229166667  54.51540616246499 74  52.5906362545018 74  L 11.593037214885955 74  C 9.312925170068027 74  7.114245698279313 73.1408420138889  4.996998799519808 71.42252604166667  C 2.8797519007603047 69.70421006944444  1.4065626250500203 67.59244791666667  0.5774309723889556 65.08723958333333  C -0.1332533013205282 62.93532986111111  -0.1628651460584234 60.89583333333333  0.4885954381752701 58.96875  C 0.4885954381752701 58.84027777777777  0.5330132052821128 58.40668402777777  0.6218487394957983 57.66796875  C 0.7106842737094837 56.929253472222214  0.7699079631852742 56.33506944444444  0.7995198079231693 55.88541666666667  C 0.8291316526610645 55.62847222222223  0.7847138855542217 55.283203125  0.666266506602641 54.849609375  C 0.5478191276510604 54.416015625  0.5034013605442177 54.102864583333336  0.5330132052821128 53.91015625  C 0.5922368947579032 53.556857638888886  0.7106842737094837 53.21961805555555  0.8883553421368547 52.8984375  C 1.0660264105642256 52.577256944444436  1.3103241296518606 52.199869791666664  1.62124849939976 51.766276041666664  C 1.9321728691476592 51.332682291666664  2.176470588235294 50.955295138888886  2.354141656662665 50.634114583333336  C 3.035214085634254 49.41362847222221  3.701480592236895 47.94422743055555  4.352941176470588 46.225911458333336  C 5.004401760704281 44.507595486111114  5.448579431772709 43.038194444444436  5.68547418967587 41.817708333333336  C 5.774309723889555 41.49652777777777  5.78171268507403 41.014756944444436  5.707683073229292 40.372395833333336  C 5.633653461384554 39.73003472222223  5.62625050020008 39.280381944444436  5.68547418967587 39.0234375  C 5.774309723889555 38.670138888888886  6.026010404161665 38.220486111111114  6.440576230492197 37.674479166666664  C 6.8551420568227295 37.12847222222223  7.106842737094838 36.75911458333333  7.195678271308523 36.56640625  C 7.817527010804322 35.41015625  8.43937575030012 33.93272569444444  9.061224489795919 32.13411458333333  C 9.683073229291717 30.335503472222218  10.053221288515408 28.890190972222218  10.171668667466987 27.798177083333332  C 10.201280512204882 27.509114583333332  10.164265706282512 26.995225694444443  10.06062424969988 26.256510416666668  C 9.956982793117247 25.517795138888886  9.964385754301722 25.068142361111104  10.082833133253303 24.907552083333332  C 10.201280512204882 24.490017361111104  10.52701080432173 24.00021701388888  11.060024009603842 23.438151041666668  C 11.593037214885955 22.876085069444443  11.918767507002801 22.514756944444443  12.037214885954382 22.354166666666668  C 12.59983993597439 21.519097222222218  13.229091636654664 20.162109375  13.924969987995198 18.283203125  C 14.620848339335735 16.404296875  15.028011204481794 14.854600694444443  15.146458583433372 13.63411458333333  C 15.176070428171268 13.377170138888879  15.131652661064427 12.967664930555548  15.013205282112846 12.40559895833333  C 14.894757903161265 11.843532986111105  14.86514605842337 11.41796875  14.92436974789916 11.12890625  C 14.983593437374951 10.871961805555548  15.11684673869548 10.582899305555548  15.324129651860744 10.26171875  C 15.531412565026011 9.940538194444443  15.797919167667068 9.571180555555548  16.123649459783913 9.15364583333333  C 16.44937975190076 8.736111111111105  16.70108043217287 8.398871527777775  16.87875150060024 8.14192708333333  C 17.115646258503403 7.75651041666667  17.359943977591037 7.266710069444444  17.611644657863145 6.67252604166667  C 17.863345338135254 6.078342013888879  18.08543417366947 5.51627604166667  18.277911164465785 4.986328125  C 18.470388155262107 4.45638020833333  18.70728291316527 3.8782552083333304  18.98859543817527 3.251953125  C 19.269907963185275 2.6256510416666696  19.558623449379752 2.111762152777774  19.8547418967587 1.7102864583333306  C 20.15086034413766 1.3088107638888788  20.543217286914768 0.9314236111111047  21.031812725090035 0.578125  C 21.52040816326531 0.22482638888887885  22.053421368547422 0.04014756944444353  22.630852340936375 0.024088541666669405  C 23.20828331332533 0.008029513888878848  23.911564625850342 0.0963541666666694  24.740696278511404 0.2890625  L 24.696278511404564 0.43359375  C 25.821528611444577 0.14453125  26.576630652260906 0  26.96158463385354 0  L 60.76350540216087 0  C 62.954781912765114 0  64.64265706282514 0.8993055555555483  65.82713085234094 2.6979166666666696  C 67.01160464185675 4.496527777777774  67.27811124449781 6.584201388888879  66.6266506602641 8.9609375  L 54.45618247298919 52.609375  C 53.390156062424964 56.43142361111111  52.33153261304522 58.896484375  51.28031212484994 60.00455729166667  C 50.22909163665467 61.11263020833333  48.326530612244895 61.66666666666667  45.572629051620645 61  L 6.9735894357743105 61  C 6.174069627851141 61.66666666666667  5.611444577831133 61.90755208333333  5.285714285714286 62.38932291666667  C 4.959983993597439 62.90321180555556  4.945178071228492 63.59375  5.2412965186074425 64.4609375  C 5.951980792316927 66.7092013888889  8.084033613445378 67.83333333333333  11.637454981992796 67  L 52.63505402160864 67  C 53.49379751900761 67.83333333333333  54.32292917166867 67.58441840277777  55.12244897959184 67.08658854166667  C 55.921968787515006 66.58875868055556  56.44017607042817 65.92230902777777  56.67707082833133 65.08723958333333  L 70.00240096038415 17.536458333333332  C 70.20968387354942 16.829861111111104  70.28371348539416 15.914496527777775  70.22448979591837 14.79036458333333  Z M 26.517406962785113 13.875  L 25.58463385354142 16.958333333333332  C 25.466186474589836 17.37586805555555  25.49579831932773 17.73719618055555  25.6734693877551 18.042317708333332  C 25.851140456182474 18.347439236111104  26.14725890356143 18.5  26.561824729891956 19  L 53.56782713085234 19  C 53.95278111244498 18.5  54.330332132853144 18.347439236111104  54.70048019207683 18.042317708333332  C 55.070628251300526 17.73719618055555  55.31492597038816 17.37586805555555  55.43337334933974 16.958333333333332  L 56.36614645858343 13.875  C 56.484593837535016 13.457465277777775  56.45498199279712 13.096137152777775  56.27731092436974 12.791015625  C 56.09963985594238 12.485894097222218  55.803521408563434 12.33333333333333  55.388955582232896 13  L 28.38295318127251 13  C 27.997999199679874 12.33333333333333  27.62044817927171 12.485894097222218  27.250300120048017 12.791015625  C 26.88015206082433 13.096137152777775  26.6358543417367 13.457465277777775  26.517406962785113 13.875  Z M 22.83073229291717 26.208333333333332  L 21.897959183673468 29.291666666666668  C 21.779511804721892 29.709201388888886  21.809123649459785 30.070529513888886  21.986794717887157 30.375651041666668  C 22.164465786314526 30.680772569444443  22.460584233693478 30.833333333333332  22.875150060024012 31  L 49.881152460984396 31  C 50.26610644257703 30.833333333333332  50.6436574629852 30.680772569444443  51.01380552220888 30.375651041666668  C 51.383953581432586 30.070529513888886  51.62825130052021 29.709201388888886  51.74669867947179 29.291666666666668  L 52.67947178871548 26.208333333333332  C 52.79791916766707 25.790798611111104  52.76830732292917 25.429470486111104  52.5906362545018 25.124348958333332  C 52.41296518607443 24.819227430555557  52.116846738695486 24.666666666666668  51.70228091236495 25  L 24.696278511404564 25  C 24.311324529811927 24.666666666666668  23.933773509403764 24.819227430555557  23.563625450180073 25.124348958333332  C 23.193477390956385 25.429470486111104  22.949179671868748 25.790798611111104  22.83073229291717 26.208333333333332  Z " fill-rule="nonzero" fill="#297c82" stroke="none" transform="matrix(1 0 0 1 339 508 )" />
  </g>
</svg>